<svg width="22" height="45" viewBox="0 0 22 45" fill="none" xmlns="http://www.w3.org/2000/svg">
<path fill-rule="evenodd" clip-rule="evenodd" d="M7.13653 17.4496H2.40578V22.6968L7.13653 22.7071C7.61167 22.7071 8.00417 23.0893 8.00417 23.5748L8.0145 42.2912H13.2514V23.5748C13.2514 23.0893 13.6439 22.6968 14.1294 22.6968H20.2545V17.4496H14.1294C13.6439 17.4496 13.2514 17.0571 13.2514 16.5716C13.2514 14.3199 13.2514 12.6775 13.396 11.407C13.5509 9.99195 13.8918 9.052 14.5942 8.40127C14.6148 8.39094 14.6355 8.37028 14.6561 8.34962C15.2656 7.81251 16.0712 7.54395 17.1868 7.42C18.0131 7.32704 19.015 7.30638 20.2545 7.30638V2.05918C17.2178 2.05918 14.8834 2.07983 13.1378 2.28642C11.3818 2.50333 10.2353 2.90617 9.52256 3.69118C8.78919 4.50718 8.41734 5.788 8.22109 7.76086C8.00417 9.85768 8.00417 12.7395 8.00417 16.5716C8.00417 17.0571 7.61167 17.4496 7.13653 17.4496ZM1.53813 15.6936H6.25855C6.25855 12.2747 6.27921 9.65109 6.48579 7.59559C6.72336 5.24055 7.21916 3.63953 8.23141 2.52399C9.26433 1.37745 10.7414 0.81968 12.9312 0.551122C14.9557 0.303223 17.5999 0.303223 21.1222 0.303223C21.6076 0.303223 22.0002 0.69573 22.0002 1.1812V8.17403C22.0002 8.6595 21.6076 9.052 21.1222 9.052C19.5108 9.052 18.2713 9.052 17.3727 9.15529C16.629 9.23793 16.1229 9.38254 15.813 9.65109L15.782 9.68208C15.4205 10.0126 15.2346 10.6117 15.1313 11.6033C15.0177 12.5846 15.0073 13.9274 15.0073 15.6936H21.1222C21.6076 15.6936 22.0002 16.0861 22.0002 16.5716V23.5748C22.0002 24.0499 21.6076 24.4424 21.1222 24.4424H15.0073V43.1588H14.997C14.997 43.6443 14.6045 44.0368 14.1294 44.0368L7.13653 44.0265C6.66139 44.0265 6.26888 43.6443 6.26888 43.1588L6.25855 24.4424H1.53813C1.05266 24.4424 0.660156 24.0499 0.660156 23.5748V16.5716C0.660156 16.0861 1.05266 15.6936 1.53813 15.6936Z" fill="white"/>
</svg>
