<?xml version="1.0" standalone="no"?>
<!DOCTYPE svg PUBLIC "-//W3C//DTD SVG 20010904//EN"
 "http://www.w3.org/TR/2001/REC-SVG-20010904/DTD/svg10.dtd">
<svg version="1.0" xmlns="http://www.w3.org/2000/svg"
 width="700.000000pt" height="700.000000pt" viewBox="0 0 700.000000 700.000000"
 preserveAspectRatio="xMidYMid meet">
<metadata>
Created by potrace 1.14, written by Peter Selinger 2001-2017
</metadata>
<g transform="translate(0.000000,700.000000) scale(0.100000,-0.100000)"
fill="#000000" stroke="none">
<path d="M4230 6339 c-817 -46 -1635 -248 -2232 -551 -463 -235 -836 -551
-965 -819 -84 -173 -83 -375 1 -555 38 -81 77 -128 155 -188 120 -92 224 -127
381 -128 191 0 372 69 637 246 57 37 63 45 69 83 3 24 3 59 0 79 -6 29 -11 35
-29 32 -32 -4 -47 9 -47 43 0 32 -17 37 -64 19 -46 -17 -147 -29 -193 -23 -61
8 -72 32 -47 109 13 42 31 70 68 108 115 116 429 298 781 451 117 51 168 72
370 150 149 58 377 134 530 178 173 50 294 79 311 75 10 -2 -8 -21 -48 -53
-96 -77 -230 -251 -645 -840 -585 -831 -1052 -1527 -1643 -2445 -327 -508
-515 -815 -670 -1096 -187 -337 -215 -441 -137 -509 109 -94 127 -100 311
-110 99 -5 150 -3 225 10 228 39 199 12 461 436 69 112 137 221 151 243 28 45
161 259 290 466 46 74 127 205 180 290 54 85 146 232 204 325 59 94 151 240
205 325 54 85 129 203 166 263 36 59 71 107 75 107 5 0 46 -32 92 -71 136
-118 250 -183 392 -222 69 -19 104 -22 260 -21 239 1 442 36 730 126 716 223
1379 637 1802 1124 348 401 523 788 523 1154 0 181 -41 295 -160 447 -75 97
-127 149 -240 240 -353 285 -825 457 -1383 502 -146 12 -651 12 -867 0z m598
-619 c355 -24 677 -108 859 -222 157 -99 253 -277 253 -467 -1 -201 -224 -517
-585 -828 -211 -182 -415 -318 -676 -449 -415 -207 -736 -290 -1100 -282 -167
3 -219 12 -219 38 0 7 112 187 225 360 23 36 63 97 87 135 378 591 659 1021
845 1289 109 157 123 192 109 270 -5 27 -13 37 -31 42 -13 3 -33 21 -44 40
l-20 34 -158 0 c-87 0 -164 4 -171 9 -8 5 27 13 90 20 195 22 333 25 536 11z"/>
</g>
</svg>
